<svg width="439" height="311" viewBox="0 0 439 311" fill="none" xmlns="http://www.w3.org/2000/svg">
<g id="AnimatedGraph1">
<g id="Group 1">
<path id="Vector" d="M33.5718 284.466V246.446L85.146 208.426L131.363 184.135L179.589 147.7L236.522 131.329H309.53L369.813 78.5243L422.057 32.0552V284.466H33.5718Z" fill="url(#paint0_linear)"/>
</g>
<g id="Points">
<path id="Vector 2" d="M33.9721 254.839C39.0589 254.839 43.1825 250.712 43.1825 245.623C43.1825 240.533 39.0589 236.407 33.9721 236.407C28.8853 236.407 24.7617 240.533 24.7617 245.623C24.7617 250.712 28.8853 254.839 33.9721 254.839Z" fill="#2790F1"/>
<path id="Vector 3" d="M82.8272 221.181C87.9138 221.181 92.0376 217.054 92.0376 211.965C92.0376 206.875 87.9138 202.749 82.8272 202.749C77.7407 202.749 73.6168 206.875 73.6168 211.965C73.6168 217.054 77.7407 221.181 82.8272 221.181Z" fill="#2790F1"/>
<path id="Vector 4" d="M130.081 192.331C135.167 192.331 139.291 188.205 139.291 183.115C139.291 178.026 135.167 173.899 130.081 173.899C124.994 173.899 120.87 178.026 120.87 183.115C120.87 188.205 124.994 192.331 130.081 192.331Z" fill="#2790F1"/>
<path id="Vector 5" d="M182.94 156.269C188.027 156.269 192.151 152.143 192.151 147.053C192.151 141.963 188.027 137.837 182.94 137.837C177.854 137.837 173.73 141.963 173.73 147.053C173.73 152.143 177.854 156.269 182.94 156.269Z" fill="#2790F1"/>
<path id="Vector 6" d="M242.207 137.837C247.294 137.837 251.418 133.711 251.418 128.621C251.418 123.532 247.294 119.406 242.207 119.406C237.121 119.406 232.997 123.532 232.997 128.621C232.997 133.711 237.121 137.837 242.207 137.837Z" fill="#2790F1"/>
<path id="Vector 7" d="M310.284 141.043C315.37 141.043 319.494 136.916 319.494 131.827C319.494 126.737 315.37 122.611 310.284 122.611C305.197 122.611 301.073 126.737 301.073 131.827C301.073 136.916 305.197 141.043 310.284 141.043Z" fill="#2790F1"/>
<path id="Vector 8" d="M367.148 91.3573C372.235 91.3573 376.359 87.231 376.359 82.1414C376.359 77.0516 372.235 72.9255 367.148 72.9255C362.062 72.9255 357.938 77.0516 357.938 82.1414C357.938 87.231 362.062 91.3573 367.148 91.3573Z" fill="#2790F1"/>
<path id="Vector 9" d="M416.804 41.6717C421.891 41.6717 426.015 37.5456 426.015 32.4558C426.015 27.3661 421.891 23.24 416.804 23.24C411.718 23.24 407.594 27.3661 407.594 32.4558C407.594 37.5456 411.718 41.6717 416.804 41.6717Z" fill="#2790F1"/>
</g>
<g id="GraphLines">
<path id="Vector 10" d="M16.0203 0.801392V310.935" stroke="#47E6B1" stroke-width="2" stroke-miterlimit="10"/>
<path id="Vector 11" d="M0.734619 293.305H438.829" stroke="#47E6B1" stroke-width="2" stroke-miterlimit="10"/>
</g>
<path id="VectorGrowth" d="M19.3677 261.118L428.629 31.0072" stroke="#252927" stroke-width="3" stroke-dasharray="20 20"/>
</g>
<defs>
<linearGradient id="paint0_linear" x1="421.859" y1="31.8935" x2="122.761" y2="386.507" gradientUnits="userSpaceOnUse">
<stop stop-color="#254CD7"/>
<stop offset="0.0001" stop-color="#25D741"/>
<stop offset="1" stop-color="#001AFF"/>
</linearGradient>
</defs>
</svg>
