<svg width="653" height="387" viewBox="0 0 653 387" fill="none" xmlns="http://www.w3.org/2000/svg">
<g id="AnimatedGraph1" clip-path="url(#clip0)">
<g id="MountainLine">
<path id="Vector" d="M83 354.97V307.527L147.395 260.084L205.101 229.773L265.315 184.307L336.401 163.879H427.559L502.827 97.9864L568.059 40V354.97H83Z" fill="url(#paint0_linear)"/>
</g>
<g id="StayPoints">
<path id="Vector_2" d="M322.5 185C328.851 185 334 179.851 334 173.5C334 167.149 328.851 162 322.5 162C316.149 162 311 167.149 311 173.5C311 179.851 316.149 185 322.5 185Z" fill="#2790F1"/>
<path id="Vector_3" d="M144.5 276C150.851 276 156 270.851 156 264.5C156 258.149 150.851 253 144.5 253C138.149 253 133 258.149 133 264.5C133 270.851 138.149 276 144.5 276Z" fill="#2790F1"/>
<path id="Vector_4" d="M203.5 240C209.851 240 215 234.851 215 228.5C215 222.149 209.851 217 203.5 217C197.149 217 192 222.149 192 228.5C192 234.851 197.149 240 203.5 240Z" fill="#2790F1"/>
<path id="Vector_5" d="M269.5 195C275.851 195 281 189.851 281 183.5C281 177.149 275.851 172 269.5 172C263.149 172 258 177.149 258 183.5C258 189.851 263.149 195 269.5 195Z" fill="#2790F1"/>
<path id="Vector_6" d="M343.5 172C349.851 172 355 166.851 355 160.5C355 154.149 349.851 149 343.5 149C337.149 149 332 154.149 332 160.5C332 166.851 337.149 172 343.5 172Z" fill="#2790F1"/>
<path id="Vector_7" d="M428.5 176C434.851 176 440 170.851 440 164.5C440 158.149 434.851 153 428.5 153C422.149 153 417 158.149 417 164.5C417 170.851 422.149 176 428.5 176Z" fill="#2790F1"/>
<path id="Vector_8" d="M499.5 114C505.851 114 511 108.851 511 102.5C511 96.1487 505.851 91 499.5 91C493.149 91 488 96.1487 488 102.5C488 108.851 493.149 114 499.5 114Z" fill="#2790F1"/>
<path id="Vector_9" d="M561.5 52C567.851 52 573 46.8513 573 40.5C573 34.1487 567.851 29 561.5 29C555.149 29 550 34.1487 550 40.5C550 46.8513 555.149 52 561.5 52Z" fill="#2790F1"/>
<path id="Vector_10" d="M83.5 318C89.8513 318 95 312.851 95 306.5C95 300.149 89.8513 295 83.5 295C77.1487 295 72 300.149 72 306.5C72 312.851 77.1487 318 83.5 318Z" fill="#2790F1"/>
</g>
<g id="GoPoints">
<path id="Vector_11" d="M326.5 295C332.851 295 338 289.851 338 283.5C338 277.149 332.851 272 326.5 272C320.149 272 315 277.149 315 283.5C315 289.851 320.149 295 326.5 295Z" fill="#2790F1"/>
<path id="Vector_12" d="M355.5 251C361.851 251 367 245.851 367 239.5C367 233.149 361.851 228 355.5 228C349.149 228 344 233.149 344 239.5C344 245.851 349.149 251 355.5 251Z" fill="#2790F1"/>
<path id="Vector_13" d="M488.5 240C494.851 240 500 234.851 500 228.5C500 222.149 494.851 217 488.5 217C482.149 217 477 222.149 477 228.5C477 234.851 482.149 240 488.5 240Z" fill="#2790F1"/>
<path id="Vector_14" d="M326.5 103C332.851 103 338 97.8513 338 91.5C338 85.1487 332.851 80 326.5 80C320.149 80 315 85.1487 315 91.5C315 97.8513 320.149 103 326.5 103Z" fill="#2790F1"/>
<path id="Vector_15" d="M215.5 108C221.851 108 227 102.851 227 96.5C227 90.1487 221.851 85 215.5 85C209.149 85 204 90.1487 204 96.5C204 102.851 209.149 108 215.5 108Z" fill="#2790F1"/>
<path id="Vector_16" d="M121.5 137C127.851 137 133 131.851 133 125.5C133 119.149 127.851 114 121.5 114C115.149 114 110 119.149 110 125.5C110 131.851 115.149 137 121.5 137Z" fill="#2790F1"/>
<path id="Vector_17" d="M549.5 149C555.851 149 561 143.851 561 137.5C561 131.149 555.851 126 549.5 126C543.149 126 538 131.149 538 137.5C538 143.851 543.149 149 549.5 149Z" fill="#2790F1"/>
<path id="Vector_18" d="M476.5 63C482.851 63 488 57.8513 488 51.5C488 45.1487 482.851 40 476.5 40C470.149 40 465 45.1487 465 51.5C465 57.8513 470.149 63 476.5 63Z" fill="#2790F1"/>
<path id="Vector_19" d="M226.5 318C232.851 318 238 312.851 238 306.5C238 300.149 232.851 295 226.5 295C220.149 295 215 300.149 215 306.5C215 312.851 220.149 318 226.5 318Z" fill="#2790F1"/>
<path id="Vector_20" d="M180.5 193C186.851 193 192 187.851 192 181.5C192 175.149 186.851 170 180.5 170C174.149 170 169 175.149 169 181.5C169 187.851 174.149 193 180.5 193Z" fill="#2790F1"/>
<path id="Vector_21" d="M112.5 240C118.851 240 124 234.851 124 228.5C124 222.149 118.851 217 112.5 217C106.149 217 101 222.149 101 228.5C101 234.851 106.149 240 112.5 240Z" fill="#2790F1"/>
</g>
<g id="GraphLines">
<path id="YLine" d="M61.0854 1V388" stroke="#47E6B1" stroke-width="2" stroke-miterlimit="10"/>
<path id="XLine" d="M42 366L589 366" stroke="#47E6B1" stroke-width="2" stroke-miterlimit="10"/>
</g>
<g id="RegressionLine">
<line id="VectorGrowth" x1="65.2652" y1="325.836" x2="576.265" y2="38.6923" stroke="#252927" stroke-width="3" stroke-dasharray="20 20"/>
</g>
</g>
<defs>
<linearGradient id="paint0_linear" x1="567.811" y1="39.7982" x2="194.62" y2="482.52" gradientUnits="userSpaceOnUse">
<stop stop-color="#254CD7"/>
<stop offset="0.0001" stop-color="#25D741"/>
<stop offset="1" stop-color="#001AFF"/>
</linearGradient>
<clipPath id="clip0">
<rect width="653" height="387" fill="white"/>
</clipPath>
</defs>
</svg>
